<?xml version="1.0" standalone="no"?><!DOCTYPE svg PUBLIC "-//W3C//DTD SVG 1.1//EN" "http://www.w3.org/Graphics/SVG/1.1/DTD/svg11.dtd"><svg t="1539675452486" class="icon" style="" viewBox="0 0 1024 1024" version="1.1" xmlns="http://www.w3.org/2000/svg" p-id="10321" xmlns:xlink="http://www.w3.org/1999/xlink" width="200" height="200"><defs><style type="text/css"></style></defs><path d="M593.1 282.9c31.7 18.5 71 18.5 102.7 0 31.7-18.5 51.3-52.4 51.3-89.3s-19.6-70.9-51.3-89.3c-31.7-18.5-71-18.5-102.7 0-31.7 18.5-51.3 52.5-51.3 89.3s19.6 70.9 51.3 89.3z m274.1-9.1c-34.8-25.1-63.5 0-63.5 0-81.1 102.7-145.6 72-160.9 68.4-15.3-3.6-100.5-50.6-118.6-59-18.1-8.6-42.4-25.1-122.3-19.9-90.8 7.9-169.4 91.3-177.7 125.9-8.3 34.6 51.7 68.8 77.2 41.9 87.9-115.3 167.3-69.2 167.3-69.2s-53.1 97.6-111.3 206.6c-94.4 117.3-159 69-194.1 53.8-35.2-15.1-66.6 26-66.6 51.9s57 66.4 150.4 66.4 167.1-78 176.3-88.8c27.1 1.9 143.1 81.7 157.9 95.2 14.8 13.4 72.5 143 77.3 151.1 4.8 8.1 29.1 26.4 58 12.2 28.9-14.3 25.1-51.4 25.1-51.4s-51.3-133.3-84.4-166.8c-33.2-33.6-134.8-98.4-134.8-98.4s72.1-132.9 90-163.7c176.8 45.8 260.1-95.4 260.1-95.4s29.3-35.7-5.4-60.8z" p-id="10322" fill="#ffffff"></path></svg>