<?xml version="1.0" standalone="no"?><!DOCTYPE svg PUBLIC "-//W3C//DTD SVG 1.1//EN" "http://www.w3.org/Graphics/SVG/1.1/DTD/svg11.dtd"><svg t="1539675324640" class="icon" style="" viewBox="0 0 1024 1024" version="1.1" xmlns="http://www.w3.org/2000/svg" p-id="8448" xmlns:xlink="http://www.w3.org/1999/xlink" width="200" height="200"><defs><style type="text/css"></style></defs><path d="M841.328 205.912c-44.888-45.52-104.272-70.6-167.184-70.6-63.096 0-122.904 25.08-168.472 70.632l-323.04 323.04c-22.544 22.544-39.848 48.168-51.464 76.296C118.448 633.752 112 664.768 112 697.472c0 63.312 25.072 122.912 70.624 167.848 45.152 45.136 104.52 69.992 167.216 69.992 63.304 0 122.896-25.08 167.848-70.632l323.672-323.664c21.008-21.016 38.816-47.176 51.44-75.584 12.56-29.52 19.2-61.424 19.2-92.264 0-62.904-25.08-122.28-70.672-167.256z m-360.992 620.784c-35.832 35.848-80.744 54.792-129.856 54.792-49.12 0-94.016-18.936-129.856-54.792-70.384-70.384-70.384-189.328 0-259.728l141.264-141.248L621.6 685.424l-141.264 141.272z m323.048-323.688L658.328 648.72 398.6 389l145.048-145.064c35.848-35.84 80.76-54.792 129.864-54.792 49.128 0 94.032 18.952 129.856 54.792 35.832 35.832 54.8 80.528 54.8 129.224 0 49.112-18.952 94.024-54.784 129.848z" fill="#ffffff" p-id="8449"></path><path d="M762.92 285.328c-18.968-22.536-49.56-35.456-83.92-35.456-33.296 0-64.32 12.704-87.4 35.792l-73.464 73.488c-3.504 3.488-5.552 7.928-6.072 13.104a22.512 22.512 0 0 0 5.416 16.64c3.52 3.528 7.896 5.392 12.672 5.392 1.816 0 2.328-0.008 3.36-0.344l0.312-0.12 0.312-0.064a31.392 31.392 0 0 0 13.72-6.744l70.952-71.592c15.328-15.336 34.312-23.12 56.392-23.12 21.808 0 42.392 8.464 56.376 23.12 4.832 4.832 11.352 5.392 15.832 5.392 1.536 0 9.504-0.28 14.992-5.184 5.32-5.912 5.584-13.872 5.584-15.408 0.008-6.232-1.616-11.056-5.064-14.896z" fill="#ffffff" p-id="8450"></path></svg>