<?xml version="1.0" standalone="no"?><!DOCTYPE svg PUBLIC "-//W3C//DTD SVG 1.1//EN" "http://www.w3.org/Graphics/SVG/1.1/DTD/svg11.dtd"><svg t="1539675415921" class="icon" style="" viewBox="0 0 1024 1024" version="1.1" xmlns="http://www.w3.org/2000/svg" p-id="9397" xmlns:xlink="http://www.w3.org/1999/xlink" width="200" height="200"><defs><style type="text/css"></style></defs><path d="M828.9 581.8c-7.1-13.8-26.7-29.6-26.7-29.6L725.3 352l-3.9-10c-20.9-0.4-20.9-14.9-18.4-27-27.3-13-53.6-33.8-69.1-33.8H238.3c-6.5 0-15.6 1.9-25.6 5.7-22.9 8.7-50.3 27.4-62 55.1l-9.8 25.4-14.7 38.3-56.1 146.6s-19.5 15.8-26.7 29.6c-7.1 13.8-15 26.1-15 119.4 0 90.9 18.7 123.3 41.1 134.4l17.7 9.7v84.4c0 27.4 6.7 35.5 33.4 35.5h59.9c26.7 0 33.4-8.1 33.4-35.5v-84.4h444.4v84.4c0 27.4 6.7 35.5 33.4 35.5h59.9c26.7 0 33.4-8.1 33.4-35.5v-84.4l17.7-9.7c22.4-11.2 41.1-43.5 41.1-134.4 0-93.3-7.8-105.6-14.9-119.5zM186.2 745.1c-28.7 0-51.9-23.3-51.9-52s23.3-51.9 52-51.9 51.9 23.3 52 52c-0.1 28.6-23.4 51.8-52.1 51.9z m501.8 0c-28.7-0.1-51.9-23.3-51.9-52s23.3-51.9 52-51.9 51.9 23.3 51.9 52c0 28.6-23.3 51.8-52 51.9z m57.9-192.8H126.3s-14.8 1.4-10.3-14.5c3.8-13.4 57-145.4 68.2-181.7 4.5-12.5 30.2-41.1 65-39H623c34.8-2.1 60.5 26.5 65 39 11.2 36.3 64.4 168.3 68.2 181.7 4.5 15.9-10.3 14.5-10.3 14.5z m56.3 0L725.3 352l-3.9-10" p-id="9398" fill="#ffffff"></path><path d="M646 396.2l26.5-21.1c2.5-1.8 3.9-4.9 3.4-8-0.4-3.1-2.5-5.7-5.4-6.8-2.9-1.1-6.2-0.5-8.6 1.6L635.5 383c-2.6 1.8-3.9 4.9-3.5 8 0.4 3.1 2.5 5.7 5.4 6.8 3 1.1 6.3 0.4 8.6-1.6z m-33.6 16.3c-2.9-3.6-8.2-4.2-11.9-1.3L574 432.3c-2.6 1.8-3.9 4.9-3.5 8 0.4 3.1 2.5 5.7 5.4 6.8 2.9 1.1 6.2 0.5 8.6-1.6l26.5-21c1.8-1.4 2.9-3.4 3.1-5.7 0.3-2.3-0.3-4.5-1.7-6.3z m30.5-76.1c2.9-1.2 4.9-3.8 5.2-6.8 0.4-3.1-0.9-6.1-3.4-7.9-2.5-1.8-5.8-2.1-8.6-0.8l-31 13.5c-4.3 1.9-6.2 6.8-4.4 11.1 1.9 4.3 6.8 6.2 11.1 4.4l31.1-13.5z m-69.7 32.3c4.3-1.9 6.2-6.8 4.3-11.1-1.9-4.3-6.8-6.2-11.1-4.4l-31 13.5c-2.9 1.2-4.9 3.8-5.2 6.8-0.4 3.1 0.9 6.1 3.4 7.9 2.5 1.8 5.8 2.1 8.6 0.8l31-13.5z m101.5 73.9l20.1-27.2c2.6-3.8 1.8-8.9-1.9-11.6-3.7-2.7-8.9-2-11.7 1.6l-20.1 27.2c-2.6 3.8-1.8 8.9 1.9 11.6 3.7 2.7 8.9 2 11.7-1.6zM655.6 455c-3.8-2.8-9-2-11.8 1.8L623.7 484c-2.6 3.8-1.8 8.9 1.9 11.6 3.7 2.7 8.9 2 11.7-1.6l20.1-27.2c1.3-1.8 1.9-4.1 1.6-6.3-0.4-2.2-1.6-4.2-3.4-5.5z m-37.4 51.4c-3.8-2.8-9-2-11.8 1.7l-20.1 27.2c-2.6 3.8-1.8 8.9 1.9 11.6 3.7 2.7 8.9 2 11.7-1.6l20.1-27.2c2.7-3.7 1.9-9-1.8-11.7z m133.7-111c14.7-11.4 17.9-38.3 8.9-67.4l-23.5 11.7c0.2 0.3 0.4 0.6 0.5 0.9 9.4 19 14 38.3 14.1 54.8z m241.4 63c-0.3-0.5-0.4-0.7-0.4-0.6l0.4 0.6zM843.4 333.1l-38.2 19 11.5 23 38.1-19-11.4-23z m-134-2.2c2.1 4.2 8.4 5.4 14 2.6l4.1-2.1L720 316l-4.1 2.1c-5.7 2.8-8.6 8.5-6.5 12.8z m0 0" p-id="9399" fill="#ffffff"></path><path d="M862.6 314l21.5-7.2-80.3-27L730 313l7.6 15.3 14.6-7.3 61 17.4 33.9-16.9 15.3 30.7 15.4-7.6-15.2-30.6z m-11.9 189.9c-0.7 13.4 4.8 34.4 15.9 56.5 15.7 31.1 31.3 48.5 41.1 51.3 9.7 2.8 22.1 1.6 29.9-2.2l66.6-32.7c20.7-10.2 23.6-50.1 16.1-65 0 0-26.7-52.7-27.3-54-1.6-2.9-8.4-14.8-13.4-20.8-32.9-39.3-71.7-83.9-93.8-73.1L841 388.7c-4.5 2.2-6.8 6.7-5.1 10.1 0 0 8.5 16.8 13.9 27.4 9.3 18.4 4.7 41.5 2.7 51.7-1.8 8.6-2.4 17.3-1.8 26zM113.8 99.5c-26.3 0-47.7 21.3-47.7 47.7 0 26.3 21.3 47.7 47.7 47.7 26.3 0 47.7-21.3 47.7-47.7 0-12.6-5-24.8-14-33.7-8.9-9-21.1-14-33.7-14z m0 87.8c-22.1 0-40.1-17.9-40.1-40.1 0-22.1 17.9-40.1 40.1-40.1s40.1 17.9 40.1 40.1c0 10.6-4.2 20.8-11.7 28.3-7.6 7.5-17.8 11.8-28.4 11.8zM57.4 327.1C25.7 327.1 0 352.8 0 384.5s25.7 57.4 57.4 57.4 57.4-25.7 57.4-57.4-25.7-57.4-57.4-57.4z m0 105.7c-26.7 0-48.3-21.6-48.3-48.3 0-26.7 21.6-48.3 48.3-48.3 26.7 0 48.3 21.6 48.3 48.3 0 12.8-5.1 25.1-14.1 34.1-9.1 9.1-21.4 14.2-34.2 14.2z m58.3-187.4c-13.8 0-26.2 8.3-31.5 21-5.3 12.7-2.4 27.4 7.4 37.2 9.8 9.8 24.4 12.7 37.2 7.4 12.7-5.3 21-17.7 21-31.5 0-18.8-15.2-34.1-34.1-34.1z m0 62.7c-15.8 0-28.6-12.8-28.6-28.6s12.8-28.6 28.6-28.6 28.6 12.8 28.6 28.6-12.8 28.6-28.6 28.6zM566.1 89.8c-47.3 0-85.6 38.3-85.6 85.6s38.3 85.6 85.6 85.6 85.6-38.3 85.6-85.6c0-22.7-9-44.5-25.1-60.5-16-16.1-37.8-25.1-60.5-25.1z m0 157.6c-39.7 0-71.9-32.3-71.9-72s32.2-72 72-71.9c39.7 0 72 32.2 72 72 0 19.1-7.6 37.4-21.1 50.9-13.6 13.4-31.9 21-51 21zM748.5 83.9c-20.9 0-37.9 17-37.9 37.9s17 37.9 37.9 37.9c21 0 37.9-17 37.9-37.9 0-10.1-4-19.7-11.1-26.8-7.1-7.1-16.7-11.1-26.8-11.1z m0 69.8c-17.6 0-31.9-14.3-31.9-31.9s14.3-31.9 31.9-31.9c17.6 0 31.9 14.3 31.9 31.9s-14.3 31.9-31.9 31.9z m-40.4 35.2c-23.7 0-42.9 19.2-42.9 42.9s19.2 42.9 42.9 42.9 42.9-19.2 42.9-42.9-19.2-42.9-42.9-42.9z m0 78.9c-19.9 0-36-16.1-36-36s16.1-36 36-36 36 16.1 36 36c0 9.6-3.8 18.7-10.5 25.5-6.8 6.7-15.9 10.5-25.5 10.5zM253.9 130.6c-40.3 0-73 32.7-73 72.9 0 40.3 32.7 72.9 73 72.9s72.9-32.7 72.9-72.9-32.7-72.9-72.9-72.9z m0 134.3c-24.8 0-47.2-14.9-56.7-37.9-9.5-22.9-4.2-49.3 13.3-66.9 17.5-17.5 43.9-22.8 66.9-13.3 22.9 9.5 37.9 31.9 37.9 56.7 0 16.3-6.4 31.9-17.9 43.4-11.6 11.6-27.2 18-43.5 18z m183.8-151.8c0-30.1-24.4-54.5-54.5-54.5s-54.5 24.4-54.5 54.5 24.4 54.5 54.5 54.5 54.5-24.4 54.5-54.5z m-54.5 45.8c-25.3 0-45.8-20.5-45.8-45.8 0-25.3 20.5-45.8 45.8-45.8 25.3 0 45.8 20.5 45.8 45.8 0 12.2-4.8 23.8-13.4 32.4-8.5 8.6-20.2 13.4-32.4 13.4z m57.4 47.6c-18.8 0-34.1 15.3-34.1 34.1s15.3 34.1 34.1 34.1 34.1-15.3 34.1-34.1-15.2-34.1-34.1-34.1z m0 62.7c-15.8 0-28.6-12.8-28.6-28.6s12.8-28.6 28.6-28.6 28.6 12.8 28.6 28.6-12.8 28.6-28.6 28.6z m-357-118.8c0 7.8 3.1 15.2 8.6 20.7s12.9 8.6 20.7 8.6M97.2 282.9c0 9 11.2 16.3 25 16.3M21.2 396c0 13.7 17 24.8 38.1 24.8m151.4-203.7c0 20.4 25.4 37 56.8 37M351.4 123c0 13.2 16.5 23.9 36.8 23.9m33.8 97.4c0 8.6 10.7 15.6 23.9 15.6m71.7-68.3c0 21.6 26.8 39 60 39m108.5 9.1c0 10.4 13 18.9 29 18.9m12.5-130.2c0 9 11.2 16.3 25 16.3" p-id="9400" fill="#ffffff"></path></svg>