<?xml version="1.0" standalone="no"?><!DOCTYPE svg PUBLIC "-//W3C//DTD SVG 1.1//EN" "http://www.w3.org/Graphics/SVG/1.1/DTD/svg11.dtd"><svg t="1539676358288" class="icon" style="" viewBox="0 0 1024 1024" version="1.1" xmlns="http://www.w3.org/2000/svg" p-id="18866" xmlns:xlink="http://www.w3.org/1999/xlink" width="200" height="200"><defs><style type="text/css"></style></defs><path d="M808.261818 606.254545a20.945455 20.945455 0 0 1-8.843636 2.094546v264.145454a23.272727 23.272727 0 0 1-23.272727 23.272728H239.709091a23.272727 23.272727 0 0 1-23.272727-23.272728v-256a20.48 20.48 0 0 1-6.981819-3.258181c-172.218182-101.469091-152.436364-116.363636-154.298181-128a26.298182 26.298182 0 0 1 4.189091-19.781819c-5.352727 6.749091 135.214545-241.338182 186.181818-295.563636C283.927273 127.534545 395.636364 128.232727 405.643636 128.465455a23.272727 23.272727 0 0 1 21.876364 17.221818s11.403636 76.334545 77.963636 76.334545S605.090909 145.92 605.090909 144.989091a23.272727 23.272727 0 0 1 21.876364-16.290909c40.96 0 139.636364 6.981818 165.701818 42.123636C826.88 215.970909 977.454545 442.181818 969.774545 484.072727c-1.861818 10.705455 15.592727 38.632727-161.512727 122.181818zM757.294545 200.378182c-8.378182-10.472727-61.44-21.178182-116.363636-23.272727a145.687273 145.687273 0 0 1-135.68 93.090909c-79.825455 0-103.098182-58.181818-116.363636-93.090909-34.909091 1.396364-94.952727 9.309091-111.243637 26.763636C224.349091 259.025455 99.374545 488.727273 106.123636 478.487273a1233.454545 1233.454545 0 0 0 111.243637 85.410909v-110.545455a23.272727 23.272727 0 0 1 44.683636 0v395.636364h492.683636v-395.636364a23.272727 23.272727 0 0 1 44.683637 0V558.545455a576.698182 576.698182 0 0 0 124.276363-83.549091 2216.494545 2216.494545 0 0 0-166.4-274.618182z m-72.378181 602.298182H331.403636a23.272727 23.272727 0 0 1 0-46.545455h353.512728a23.272727 23.272727 0 0 1 0 46.545455z m-186.181819-442.181819c-88.436364 0-151.505455-79.825455-153.134545-84.247272a23.272727 23.272727 0 0 1 12.334545-30.254546 21.643636 21.643636 0 0 1 28.16 11.869091 156.392727 156.392727 0 0 0 112.174546 55.156364 188.276364 188.276364 0 0 0 136.843636-53.992727 23.272727 23.272727 0 0 1 27.461818-14.661819 23.272727 23.272727 0 0 1 13.73091 29.556364c-9.774545 38.4-80.523636 86.341818-176.407273 86.341818z" p-id="18867" fill="#ffffff"></path></svg>