<?xml version="1.0" standalone="no"?><!DOCTYPE svg PUBLIC "-//W3C//DTD SVG 1.1//EN" "http://www.w3.org/Graphics/SVG/1.1/DTD/svg11.dtd"><svg t="1539675534692" class="icon" style="" viewBox="0 0 1024 1024" version="1.1" xmlns="http://www.w3.org/2000/svg" p-id="10956" xmlns:xlink="http://www.w3.org/1999/xlink" width="200" height="200"><defs><style type="text/css"></style></defs><path d="M489.044834 1024V863.028683h45.967363v160.971317z m-268.333055-76.678808l80.528433-139.270844 39.779448 22.997939-80.528432 139.270844z m446.927096-119.851629l39.779449-22.969424 80.428627 139.370649-39.822223 22.969424z m136.875522-119.965692l23.040713-39.922028 139.313617 80.442885-22.997939 39.922028zM57.174046 747.981955l139.313618-80.328822 22.969423 39.922027-139.313617 80.300306z m176.79755-239.118686a277.871568 277.871568 0 1 1 278.014146 277.871568 277.885826 277.885826 0 0 1-277.942857-277.85731z m629.057087 22.955166v-45.953105h160.971317V531.818435zM0 531.818435v-45.953105h160.900028V531.818435z m804.62846-214.980117l139.242328-80.756558 23.040713 39.779449-139.242328 80.713784zM57.174046 275.861209l22.99794-39.779449 139.285101 80.442885-22.997939 39.779449z m595.237427-75.994431L732.854358 60.595934l39.750933 22.955166-80.485659 139.242328z m-416.329713-119.766082l39.779449-22.969423 80.414369 139.313617-39.750933 22.969424zM489.044834 160.900028V0h45.967363v160.900028z" p-id="10957" fill="#ffffff"></path></svg>